<?xml version="1.0" encoding="UTF-8" standalone="no"?><!DOCTYPE svg PUBLIC "-//W3C//DTD SVG 1.1//EN" "http://www.w3.org/Graphics/SVG/1.1/DTD/svg11.dtd"><svg width="100%" height="100%" viewBox="0 0 263 255" version="1.1" xmlns="http://www.w3.org/2000/svg" xmlns:xlink="http://www.w3.org/1999/xlink" xml:space="preserve" xmlns:serif="http://www.serif.com/" style="fill-rule:evenodd;clip-rule:evenodd;stroke-linejoin:round;stroke-miterlimit:2;"><path d="M150.391,142.016c-0.281,-0.056 -0.568,-0.078 -0.855,-0.065c-0.495,0.026 -0.98,0.152 -1.425,0.37c-1.785,0.862 -2.585,3.004 -1.803,4.825l-0.026,0.037l8.528,20.603c8.158,-5.205 14.351,-12.985 17.595,-22.102l-21.976,-3.714l-0.038,0.046Zm-34.194,2.92c-0.379,-1.666 -1.86,-2.867 -3.568,-2.894c-0.246,-0.003 -0.491,0.019 -0.733,0.065l-0.037,-0.045l-21.785,3.698c3.271,9.045 9.439,16.762 17.54,21.946l8.442,-20.4l-0.066,-0.08c0.312,-0.722 0.384,-1.524 0.207,-2.29Zm18.245,8c-0.647,-1.205 -1.908,-1.96 -3.276,-1.96c-1.371,0 -2.636,0.758 -3.281,1.968l-0.018,0l-10.713,19.372c7.67,2.611 15.918,3.036 23.815,1.225c1.465,-0.333 2.895,-0.733 4.292,-1.2l-10.738,-19.406l-0.081,0.001Zm33.914,-45l-16.483,14.753l0.009,0.047c-0.809,0.707 -1.273,1.73 -1.273,2.804c0,1.671 1.123,3.146 2.733,3.591l0.02,0.089l21.35,6.15c0.923,-9.59 -1.309,-19.225 -6.356,-27.432l0,-0.002Zm-30.623,1.653c0.091,1.977 1.742,3.553 3.721,3.553c0.788,0 1.555,-0.25 2.192,-0.713l0.065,0.027l18.036,-12.788c-6.864,-6.723 -15.752,-11.008 -25.287,-12.19l1.253,22.105l0.02,0.006Zm-19.1,2.921c0.636,0.462 1.402,0.711 2.188,0.711c1.98,0 3.632,-1.582 3.716,-3.561l0.092,-0.043l1.253,-22.14c-1.512,0.182 -3.015,0.441 -4.501,0.776c-7.905,1.777 -15.158,5.729 -20.937,11.409l18.154,12.869l0.035,-0.021Zm-9.678,16.729c1.613,-0.44 2.741,-1.917 2.741,-3.589c0,-1.076 -0.467,-2.101 -1.279,-2.807l0.018,-0.088l-16.574,-14.824c-5.055,8.228 -7.226,17.911 -6.168,27.51l21.245,-6.13l0.017,-0.072Zm16.098,6.512l6.114,2.94l6.096,-2.934l1.514,-6.581l-4.219,-5.276l-6.79,0l-4.231,5.268l1.516,6.583Z" style="fill:#284162;fill-rule:nonzero;"/><path d="M201.847,142.656c-0.36,-0.083 -0.874,-0.225 -1.227,-0.29c-1.341,-0.185 -2.692,-0.294 -4.046,-0.326c-2.558,-0.167 -5.093,-0.583 -7.57,-1.242c-0.764,-0.431 -1.394,-1.065 -1.82,-1.832l-1.704,-0.496c1.821,-13.307 -1.308,-26.829 -8.79,-37.983c0.436,-0.396 1.262,-1.127 1.495,-1.342c-0.058,-0.869 0.226,-1.727 0.792,-2.39c1.944,-1.67 4.047,-3.147 6.277,-4.41c1.208,-0.614 2.379,-1.297 3.507,-2.046c0.272,-0.202 0.644,-0.522 0.929,-0.75c1.221,-0.778 1.962,-2.129 1.962,-3.577c0,-2.327 -1.915,-4.242 -4.242,-4.242c-1.113,0 -2.183,0.438 -2.976,1.219c-0.288,0.227 -0.68,0.525 -0.936,0.747c-0.986,0.929 -1.917,1.914 -2.789,2.95c-1.725,1.896 -3.631,3.621 -5.69,5.148c-0.81,0.33 -1.697,0.426 -2.56,0.278l-1.606,1.147c-9.239,-9.696 -21.693,-15.714 -35.032,-16.927c-0.039,-0.561 -0.087,-1.577 -0.102,-1.884c-0.716,-0.497 -1.211,-1.254 -1.377,-2.11c-0.089,-2.561 0.071,-5.126 0.478,-7.656c0.269,-1.325 0.461,-2.665 0.575,-4.012c0.013,-0.34 -0.007,-0.834 -0.007,-1.201c0.014,-0.141 0.021,-0.283 0.021,-0.425c0,-2.327 -1.914,-4.242 -4.242,-4.242c-2.327,0 -4.242,1.915 -4.242,4.242c0,0.144 0.008,0.287 0.022,0.429c0,0.04 0.009,0.078 0.01,0.118c-0.004,0.35 -0.021,0.774 -0.01,1.08c0.115,1.348 0.308,2.689 0.576,4.015c0.405,2.53 0.562,5.093 0.47,7.654c-0.239,0.843 -0.715,1.6 -1.37,2.182l-0.1,1.786c-2.568,0.212 -5.117,0.604 -7.63,1.173c-10.555,2.385 -20.159,7.873 -27.574,15.754c-0.513,-0.354 -1.022,-0.715 -1.526,-1.082c-0.835,0.25 -1.735,0.162 -2.506,-0.243c-2.059,-1.524 -3.965,-3.246 -5.69,-5.141c-0.868,-1.036 -1.795,-2.021 -2.777,-2.95c-0.257,-0.22 -0.65,-0.52 -0.938,-0.75c-0.837,-0.675 -1.868,-1.064 -2.942,-1.11c-1.293,-0.068 -2.544,0.486 -3.363,1.49c-1.415,1.993 -0.947,4.796 1.038,6.222l0.065,0.046c0.276,0.226 0.616,0.515 0.872,0.702c1.126,0.749 2.294,1.433 3.499,2.048c2.231,1.263 4.333,2.741 6.276,4.412c0.505,0.716 0.799,1.559 0.849,2.434l1.351,1.208c-7.46,11.194 -10.528,24.758 -8.611,38.073l-1.767,0.514c-0.461,0.736 -1.081,1.361 -1.814,1.827c-2.475,0.661 -5.009,1.078 -7.565,1.247c-1.355,0.031 -2.707,0.14 -4.049,0.326c-0.324,0.06 -0.774,0.174 -1.127,0.262l-0.037,0.008l-0.06,0.018c-2.098,0.276 -3.684,2.084 -3.684,4.2c0,2.324 1.912,4.236 4.236,4.236c0.45,0 0.896,-0.072 1.323,-0.212l0.063,-0.01c0.028,-0.006 0.052,-0.02 0.08,-0.025c0.348,-0.08 0.786,-0.163 1.092,-0.246c1.289,-0.411 2.553,-0.896 3.786,-1.451c2.377,-0.958 4.841,-1.684 7.358,-2.165c0.873,0.053 1.713,0.35 2.426,0.857l1.84,-0.315c4.13,12.758 12.792,23.572 24.34,30.387l-0.769,1.84c0.358,0.741 0.489,1.572 0.377,2.387c-1.052,2.404 -2.331,4.703 -3.82,6.864c-0.818,1.079 -1.574,2.205 -2.263,3.372c-0.168,0.318 -0.381,0.805 -0.542,1.138c-0.396,0.659 -0.605,1.414 -0.605,2.183c0,2.324 1.913,4.238 4.238,4.238c1.784,0 3.385,-1.126 3.988,-2.805l0.007,-0.008l0,-0.01c0.16,-0.33 0.387,-0.763 0.522,-1.072c0.481,-1.265 0.887,-2.556 1.218,-3.868c0.729,-2.668 1.829,-5.22 3.268,-7.582c0.503,-0.472 1.137,-0.782 1.819,-0.888l0.957,-1.73c12.525,4.816 26.397,4.852 38.946,0.099c0.268,0.478 0.768,1.392 0.9,1.623c0.862,0.138 1.636,0.608 2.155,1.31c1.195,2.265 2.166,4.642 2.898,7.096c0.334,1.312 0.743,2.603 1.225,3.868c0.137,0.312 0.36,0.75 0.522,1.082c0.602,1.681 2.206,2.81 3.992,2.81c2.326,0 4.24,-1.914 4.24,-4.24c0,-0.767 -0.208,-1.519 -0.602,-2.177c-0.161,-0.333 -0.383,-0.82 -0.55,-1.136c-0.689,-1.164 -1.444,-2.287 -2.263,-3.364c-1.462,-2.106 -2.716,-4.35 -3.742,-6.7c-0.223,-0.84 -0.106,-1.735 0.324,-2.49c-0.27,-0.552 -0.505,-1.121 -0.703,-1.703c11.586,-6.87 20.249,-17.768 24.328,-30.605c0.546,0.087 1.497,0.253 1.806,0.316c0.642,-0.589 1.489,-0.904 2.36,-0.877c2.518,0.481 4.983,1.206 7.36,2.165c1.234,0.56 2.498,1.048 3.788,1.462c0.305,0.08 0.74,0.156 1.09,0.233c0.029,0.008 0.055,0.02 0.083,0.028l0.06,0.009c0.426,0.14 0.872,0.211 1.321,0.211c2.324,0 4.236,-1.912 4.236,-4.236c0,-2.114 -1.583,-3.921 -3.679,-4.199Zm-40.1,-42.987l-18.037,12.787l-0.063,-0.03c-0.637,0.465 -1.405,0.715 -2.194,0.715c-1.978,0 -3.629,-1.577 -3.719,-3.553l-0.02,-0.01l-1.253,-22.103c9.535,1.184 18.422,5.47 25.285,12.194l0.001,0Zm-29.737,33.482l5.806,0.204l-5.806,-0.204l0,0Zm-10.627,-44.902c1.487,-0.335 2.99,-0.593 4.503,-0.774l-1.255,22.137l-0.092,0.044c-0.083,1.98 -1.735,3.563 -3.717,3.563c-0.785,0 -1.551,-0.249 -2.187,-0.711l-0.035,0.02l-18.154,-12.872c5.779,-5.679 13.032,-9.631 20.937,-11.407Zm-27.52,19.68l16.574,14.824l-0.018,0.09c0.812,0.706 1.278,1.731 1.278,2.806c0,1.672 -1.127,3.149 -2.74,3.589l-0.017,0.072l-21.245,6.13c-1.058,-9.599 1.113,-19.282 6.168,-27.51l0,-0.001Zm22.191,39.38l-8.441,20.397c-8.1,-5.185 -14.266,-12.903 -17.536,-21.948l21.783,-3.7l0.037,0.049c0.241,-0.046 0.485,-0.068 0.73,-0.065c2.02,0.03 3.665,1.7 3.665,3.72c0,0.503 -0.102,1.002 -0.301,1.465l0.063,0.082Zm24.916,26.23c-7.897,1.811 -16.145,1.388 -23.815,-1.223l10.713,-19.372l0.018,0c0.649,-1.205 1.912,-1.96 3.28,-1.96c1.367,0 2.627,0.752 3.277,1.954l0.08,0l10.74,19.404c-1.394,0.465 -2.825,0.865 -4.293,1.199l0,-0.002Zm13.841,-5.751l-8.528,-20.605l0.026,-0.037c-0.781,-1.82 0.02,-3.961 1.803,-4.823c0.445,-0.218 0.93,-0.344 1.425,-0.37c0.287,-0.013 0.574,0.008 0.855,0.063l0.037,-0.046l21.977,3.714c-3.243,9.118 -9.437,16.899 -17.595,22.105l0,-0.001Zm19.903,-32.42l-21.352,-6.15l-0.02,-0.09c-1.61,-0.445 -2.733,-1.92 -2.733,-3.591c0,-1.074 0.464,-2.097 1.273,-2.804l-0.008,-0.043l16.482,-14.751c5.046,8.207 7.279,17.84 6.357,27.43l0.001,-0.001Z" style="fill:#fff;fill-rule:nonzero;"/><path d="M232.241,148.717l-17.422,-75.675c-0.948,-3.962 -3.627,-7.295 -7.293,-9.073l-70.521,-33.67c-3.699,-1.765 -8.006,-1.765 -11.705,0l-70.507,33.688c-3.666,1.777 -6.347,5.11 -7.295,9.072l-17.394,75.673c-0.429,1.913 -0.43,3.897 -0.004,5.81c0.126,0.583 0.29,1.157 0.491,1.718c0.341,0.958 0.791,1.873 1.343,2.726c0.239,0.365 0.491,0.72 0.765,1.064l48.804,60.678c0.213,0.264 0.448,0.505 0.681,0.75c0.766,0.815 1.631,1.532 2.574,2.133c1.193,0.751 2.494,1.317 3.857,1.677c1.118,0.306 2.271,0.465 3.43,0.473l0.759,0l77.504,-0.018c0.471,-0.002 0.942,-0.03 1.41,-0.083c0.672,-0.076 1.337,-0.202 1.989,-0.378c0.468,-0.123 0.929,-0.271 1.381,-0.442c0.353,-0.135 0.705,-0.27 1.045,-0.433c0.509,-0.244 1.003,-0.518 1.479,-0.822c1.228,-0.772 2.322,-1.74 3.237,-2.865l1.488,-1.85l47.299,-58.84c0.907,-1.137 1.619,-2.416 2.108,-3.785c0.204,-0.563 0.371,-1.139 0.5,-1.724c0.428,-1.913 0.426,-3.897 -0.004,-5.81l0.001,0.006Zm-73.147,29.432c0.198,0.582 0.433,1.151 0.703,1.703c-0.431,0.755 -0.549,1.65 -0.327,2.49c1.026,2.35 2.28,4.594 3.742,6.7c0.819,1.077 1.574,2.2 2.263,3.364c0.17,0.315 0.392,0.803 0.553,1.136c0.394,0.658 0.602,1.41 0.602,2.177c0,2.326 -1.914,4.24 -4.24,4.24c-1.786,0 -3.39,-1.129 -3.992,-2.81c-0.161,-0.33 -0.385,-0.77 -0.522,-1.082c-0.482,-1.265 -0.891,-2.556 -1.225,-3.868c-0.732,-2.454 -1.702,-4.831 -2.896,-7.097c-0.519,-0.7 -1.293,-1.17 -2.154,-1.307c-0.135,-0.233 -0.635,-1.15 -0.903,-1.623c-12.55,4.753 -26.422,4.717 -38.948,-0.1l-0.955,1.73c-0.682,0.106 -1.316,0.415 -1.819,0.887c-1.439,2.362 -2.539,4.914 -3.268,7.582c-0.331,1.312 -0.737,2.603 -1.218,3.868c-0.135,0.31 -0.361,0.744 -0.522,1.073l0,0.009l-0.007,0.008c-0.601,1.683 -2.204,2.813 -3.991,2.813c-2.325,0 -4.238,-1.913 -4.238,-4.238c0,-0.772 0.211,-1.53 0.61,-2.191c0.159,-0.335 0.372,-0.82 0.54,-1.135c0.689,-1.167 1.444,-2.293 2.262,-3.373c1.489,-2.162 2.768,-4.461 3.82,-6.866c0.112,-0.815 -0.019,-1.646 -0.376,-2.387l0.768,-1.84c-11.548,-6.815 -20.209,-17.629 -24.338,-30.387l-1.839,0.313c-0.713,-0.506 -1.555,-0.803 -2.428,-0.855c-2.516,0.482 -4.98,1.207 -7.356,2.165c-1.234,0.555 -2.498,1.039 -3.787,1.45c-0.305,0.084 -0.745,0.168 -1.093,0.244c-0.028,0.01 -0.052,0.022 -0.08,0.029c-0.021,0.003 -0.043,0.005 -0.065,0.006c-0.427,0.14 -0.874,0.212 -1.323,0.212c-2.324,0 -4.236,-1.912 -4.236,-4.236c0,-2.117 1.586,-3.925 3.685,-4.2l0.061,-0.015l0.037,-0.01c0.353,-0.083 0.805,-0.2 1.127,-0.262c1.343,-0.186 2.695,-0.295 4.05,-0.326c2.556,-0.167 5.089,-0.583 7.564,-1.242c0.734,-0.467 1.353,-1.092 1.814,-1.83l1.767,-0.516c-1.917,-13.315 1.152,-26.88 8.613,-38.073l-1.353,-1.206c-0.049,-0.875 -0.343,-1.719 -0.848,-2.436c-1.944,-1.671 -4.046,-3.148 -6.277,-4.41c-1.204,-0.614 -2.373,-1.297 -3.499,-2.046c-0.256,-0.191 -0.596,-0.478 -0.874,-0.704l-0.063,-0.044c-1.985,-1.426 -2.453,-4.229 -1.038,-6.222c0.819,-1.003 2.07,-1.556 3.363,-1.488c1.074,0.046 2.105,0.435 2.942,1.11c0.287,0.225 0.68,0.526 0.935,0.745c0.983,0.929 1.911,1.914 2.78,2.95c1.725,1.895 3.631,3.617 5.69,5.142c0.772,0.406 1.672,0.493 2.507,0.243c0.503,0.367 1.01,0.727 1.522,1.082c7.416,-7.882 17.021,-13.37 27.577,-15.755c2.513,-0.569 5.062,-0.961 7.63,-1.173l0.1,-1.784c0.656,-0.582 1.131,-1.34 1.37,-2.184c0.092,-2.561 -0.065,-5.124 -0.47,-7.654c-0.268,-1.326 -0.461,-2.666 -0.576,-4.014c-0.011,-0.307 0.006,-0.731 0.01,-1.081c0,-0.04 -0.01,-0.08 -0.01,-0.118c-0.014,-0.142 -0.022,-0.285 -0.022,-0.429c0,-2.327 1.915,-4.242 4.242,-4.242c2.328,0 4.242,1.915 4.242,4.242c0,0.142 -0.007,0.284 -0.021,0.425c0,0.37 0.022,0.86 0.009,1.2c-0.115,1.348 -0.309,2.688 -0.579,4.013c-0.407,2.53 -0.567,5.095 -0.478,7.656c0.167,0.856 0.662,1.614 1.379,2.11c0.015,0.305 0.065,1.323 0.102,1.884c13.339,1.213 25.793,7.231 35.032,16.927l1.606,-1.147c0.863,0.148 1.75,0.052 2.56,-0.278c2.059,-1.527 3.965,-3.252 5.69,-5.148c0.871,-1.036 1.802,-2.021 2.787,-2.95c0.259,-0.222 0.65,-0.52 0.936,-0.746c0.794,-0.782 1.864,-1.221 2.978,-1.221c2.328,0 4.242,1.915 4.242,4.242c0,1.448 -0.741,2.799 -1.962,3.577c-0.283,0.229 -0.657,0.548 -0.929,0.75c-1.128,0.749 -2.299,1.432 -3.507,2.046c-2.23,1.263 -4.333,2.74 -6.277,4.41c-0.566,0.662 -0.85,1.521 -0.792,2.39c-0.235,0.216 -1.06,0.947 -1.497,1.343c7.482,11.153 10.613,24.676 8.792,37.983l1.704,0.496c0.426,0.766 1.056,1.4 1.82,1.83c2.476,0.66 5.011,1.077 7.568,1.246c1.354,0.031 2.705,0.139 4.046,0.324c0.355,0.065 0.868,0.207 1.23,0.29c2.098,0.276 3.684,2.084 3.684,4.2c0,2.324 -1.912,4.236 -4.236,4.236c-0.45,0 -0.898,-0.072 -1.326,-0.213l-0.061,-0.008c-0.028,-0.007 -0.054,-0.022 -0.083,-0.03c-0.348,-0.075 -0.785,-0.151 -1.09,-0.231c-1.289,-0.414 -2.552,-0.902 -3.785,-1.462c-2.378,-0.959 -4.844,-1.684 -7.363,-2.165c-0.871,-0.028 -1.72,0.287 -2.362,0.877c-0.6,-0.114 -1.201,-0.219 -1.804,-0.316c-4.079,12.837 -12.742,23.735 -24.328,30.605l0,0.001Z" style="fill:#284162;fill-rule:nonzero;"/><path d="M241.44,150.657l-19.007,-82.56c-1.034,-4.323 -3.958,-7.961 -7.958,-9.9l-76.935,-36.73c-4.036,-1.926 -8.735,-1.926 -12.771,0l-76.928,36.752c-4,1.937 -6.925,5.573 -7.961,9.895l-18.974,82.565c-0.864,3.843 -0.145,7.877 1.995,11.185c0.261,0.4 0.538,0.788 0.838,1.162l53.246,66.205c2.824,3.447 7.043,5.46 11.499,5.487l85.387,-0.02c4.455,-0.025 8.674,-2.036 11.5,-5.48l53.227,-66.211c2.759,-3.474 3.805,-8.016 2.842,-12.347l0,-0.003Zm-9.197,3.866c-0.128,0.585 -0.294,1.16 -0.498,1.723c-0.49,1.37 -1.202,2.649 -2.11,3.786l-47.299,58.838l-1.486,1.852c-0.916,1.125 -2.011,2.093 -3.24,2.865c-0.474,0.304 -0.966,0.578 -1.474,0.822c-0.342,0.158 -0.69,0.301 -1.045,0.43c-0.453,0.172 -0.914,0.321 -1.383,0.445c-0.652,0.176 -1.317,0.303 -1.989,0.379c-0.468,0.053 -0.939,0.08 -1.41,0.082l-77.504,0.018l-0.76,0c-1.159,-0.007 -2.311,-0.166 -3.429,-0.472c-1.362,-0.361 -2.662,-0.927 -3.855,-1.679c-0.944,-0.601 -1.809,-1.317 -2.576,-2.132c-0.233,-0.246 -0.468,-0.487 -0.68,-0.75l-48.805,-60.679c-0.272,-0.343 -0.527,-0.698 -0.765,-1.066c-0.552,-0.853 -1.002,-1.768 -1.343,-2.726c-0.201,-0.562 -0.365,-1.136 -0.491,-1.719c-0.426,-1.913 -0.425,-3.897 0.004,-5.809l17.394,-75.675c0.949,-3.961 3.629,-7.294 7.295,-9.07l70.508,-33.685c3.699,-1.765 8.006,-1.765 11.705,0l70.519,33.67c3.666,1.778 6.345,5.111 7.293,9.073l17.422,75.674c0.429,1.912 0.43,3.895 0.002,5.807l0,-0.002Z" style="fill:#fff;fill-rule:nonzero;"/><path d="M147.875,130.955l-2.152,-1.501l1.717,-3.726c0.097,-0.211 0.055,-0.455 -0.108,-0.627c-0.163,-0.172 -0.418,-0.241 -0.654,-0.178l-3.914,1.04l-1.063,-2.471c-0.079,-0.185 -0.254,-0.32 -0.464,-0.361c-0.21,-0.038 -0.428,0.021 -0.58,0.162l-4.194,3.901l2.077,-8.695c0.052,-0.217 -0.031,-0.443 -0.215,-0.585c-0.185,-0.143 -0.439,-0.177 -0.659,-0.089l-3.848,1.533l-2.322,-5.939c-0.092,-0.234 -0.332,-0.39 -0.6,-0.39c-0.268,0 -0.508,0.156 -0.6,0.39l-2.322,5.939l-3.848,-1.533c-0.22,-0.088 -0.474,-0.054 -0.659,0.089c-0.184,0.142 -0.268,0.368 -0.215,0.585l2.077,8.695l-4.195,-3.901c-0.151,-0.141 -0.368,-0.2 -0.579,-0.162c-0.21,0.04 -0.385,0.176 -0.465,0.361l-1.062,2.471l-3.914,-1.04c-0.237,-0.063 -0.491,0.006 -0.655,0.178c-0.162,0.172 -0.204,0.416 -0.107,0.626l1.717,3.727l-2.152,1.501c-0.156,0.108 -0.249,0.276 -0.255,0.457c-0.006,0.181 0.077,0.354 0.226,0.471l8.01,6.303l-0.564,2.624c-0.041,0.191 0.021,0.39 0.167,0.529c0.146,0.141 0.316,0.203 0.524,0.173l6.876,-1.072l0,4.638c0,0.984 0.859,1.784 1.915,1.784c1.056,0 1.915,-0.8 1.915,-1.784l0,-4.638l6.956,1.072c0.207,0.03 0.438,-0.032 0.584,-0.173c0.146,-0.139 0.218,-0.338 0.177,-0.529l-0.56,-2.624l8.013,-6.303c0.149,-0.117 0.234,-0.29 0.229,-0.471c-0.006,-0.181 -0.1,-0.349 -0.255,-0.457Zm-9.093,6.551c-0.178,0.139 -0.26,0.357 -0.214,0.569l0.457,2.125l-6.747,-1.046c-0.186,-0.029 -0.415,0.02 -0.558,0.133c-0.143,0.112 -0.266,0.278 -0.266,0.453l0,5.338c0,0.33 -0.286,0.597 -0.638,0.597c-0.352,0 -0.638,-0.267 -0.638,-0.597l0,-5.338c0,-0.175 -0.043,-0.341 -0.186,-0.453c-0.116,-0.092 -0.243,-0.141 -0.393,-0.141c-0.034,0 -0.06,0.003 -0.095,0.008l-6.742,1.046l0.459,-2.125c0.046,-0.212 -0.034,-0.43 -0.212,-0.57l-7.686,-6.048l1.913,-1.333c0.235,-0.164 0.32,-0.457 0.204,-0.709l-1.386,-3.008l3.177,0.844c0.318,0.086 0.647,-0.067 0.768,-0.35l0.917,-2.132l5.06,4.706c0.201,0.187 0.51,0.228 0.759,0.101c0.249,-0.127 0.377,-0.392 0.316,-0.649l-2.283,-9.555l3.323,1.325c0.162,0.065 0.344,0.065 0.505,-0.001c0.161,-0.065 0.287,-0.188 0.347,-0.342l1.953,-4.995l1.953,4.995c0.06,0.154 0.186,0.277 0.346,0.342c0.162,0.065 0.344,0.065 0.506,0.001l3.323,-1.325l-2.283,9.555c-0.062,0.257 0.067,0.522 0.316,0.649c0.248,0.127 0.558,0.085 0.758,-0.101l5.061,-4.706l0.917,2.132c0.121,0.283 0.451,0.435 0.768,0.35l3.177,-0.844l-1.386,3.008c-0.116,0.252 -0.032,0.544 0.204,0.708l1.912,1.334l-7.686,6.049Z" style="fill:#c90000;fill-rule:nonzero;"/></svg>